# xmcd
#
# Track frame offsets:
#	150
#	11710
#	29308
#	47729
#	96372
#	115814
#	134637
#	153500
#	166671
#	197211
#	213142
#	227917
#	242800
#
# Disc length: 3436 seconds
#
# Revision: 0
# Processed by: cddbd v1.4PL0 Copyright (c) Steve Scherf et al.
# Submitted via: dBpowerAMP V4.0
#
DISCID=af0d6a0d
DTITLE=C-Weed - The Older Songs of the 80'2
DYEAR=1980
DGENRE=Country
TTITLE0=Mobile Boogie
TTITLE1=Gimme All Your Lovin
TTITLE2=Cocaine
TTITLE3=Can't You See
TTITLE4=Ain't Living Long
TTITLE5=11 29
TTITLE6=Jamine
TTITLE7=No Hard Time Blues
TTITLE8=Comfortably Numb
TTITLE9=Raise A Little Hell
TTITLE10=Mr Weatherman
TTITLE11=Move It On Over
TTITLE12=Old Time Rock and Roll
EXTD=
EXTT0=
EXTT1=
EXTT2=
EXTT3=
EXTT4=
EXTT5=
EXTT6=
EXTT7=
EXTT8=
EXTT9=
EXTT10=
EXTT11=
EXTT12=
PLAYORDER=
